<svg id="Layer_1" data-name="Layer 1" xmlns="http://www.w3.org/2000/svg" viewBox="0 0 400 100">
  <defs>
    <style>
      .cls-1, .cls-2 {
        fill: #0f3057;
      }

      .cls-2 {
        font-size: 42.94px;
        font-family: Avenir-Roman, Avenir;
      }
    </style>
  </defs>
  <g>
    <g>
      <path class="cls-1" d="M72.52,73.4A19.56,19.56,0,0,1,60.2,77.62a19.8,19.8,0,0,1-8.69-1.93,23,23,0,0,1-7.51-6c-.33-.39-.65-.79-1-1.18a1.71,1.71,0,0,1-.31-.91c0-.75,0-1.5,0-2.25a2.16,2.16,0,0,1,.16-.59H43c.35.53.71,1.06,1.05,1.59a20.45,20.45,0,0,0,9.35,8,24.8,24.8,0,0,0,3.22.93,14.07,14.07,0,0,0,3.88.4A18.92,18.92,0,0,0,64.93,75a15.78,15.78,0,0,0,3.7-1.47,19.8,19.8,0,0,0,5.14-4,18.53,18.53,0,0,0,2.79-3.79c.19-.36.36-.74.58-1.21-.94.36-1.76.68-2.57,1a21,21,0,0,1-5,1.28.52.52,0,0,0-.52.42,4,4,0,0,1-7.26.27.2.2,0,0,1,0-.08c0-.75-.53-.7-1.06-.69-1.26,0-2.52,0-3.78,0-.73,0-1-.26-1-.93s.32-1.13,1-1.14c1.36,0,2.73,0,4.09,0a.75.75,0,0,0,.84-.54,3.86,3.86,0,0,1,4.8-2A3.79,3.79,0,0,1,69,64.24a.7.7,0,0,0,.86.49,23,23,0,0,0,4.81-1.43,22.6,22.6,0,0,0,3.68-1.76.68.68,0,0,0,.38-.67q0-7,0-14c0-.5,0-1,.45-1.34.08-.05.09-.25.09-.37A18.94,18.94,0,0,0,77.38,37c-.52-1-1.18-2-1.79-3.07-.67.37-1.25.67-1.81,1a35.82,35.82,0,0,1-6.33,3c-1.71.64-3.48,1.12-5.23,1.62a60,60,0,0,1-8.8,1.73,62.54,62.54,0,0,1-8.43.4.57.57,0,0,1-.66-.57v0c-.15-1.23,0-1.36,1.21-1.4,2.11-.06,4.23-.08,6.33-.28a63.45,63.45,0,0,0,10.92-2.11A49,49,0,0,0,71.32,34c.86-.42,1.67-.94,2.5-1.43a3,3,0,0,0,.36-.28c-.63-.56-1.21-1.12-1.82-1.64a17.64,17.64,0,0,0-7-3.59c-1.12-.3-2.3-.36-3.44-.59a14.75,14.75,0,0,0-5.73.36,17.54,17.54,0,0,0-7.54,3.41,16.94,16.94,0,0,0-3.77,3.88,19.83,19.83,0,0,0-2.15,3.77,17.87,17.87,0,0,0-1.39,6.65,7.26,7.26,0,0,0,0,.8,2.76,2.76,0,0,0,.18.53,1.73,1.73,0,0,1,.17.53V62.6c0,.13,0,.26,0,.38-1.18,0-2.34.07-3.48,0a3.59,3.59,0,0,1-2.89-2.3c-.16-.33-.32-.36-.64-.36a6.1,6.1,0,0,1-1.71-.18,2.2,2.2,0,0,1-1.56-2A20.48,20.48,0,0,1,31.23,56c0-1.47,0-2.94,0-4.41A2.67,2.67,0,0,1,32.6,49a2.6,2.6,0,0,1,1.07-.23c.37,0,.48-.12.49-.49.05-1.65.08-3.3.22-4.94a25.2,25.2,0,0,1,3-10.13,27.26,27.26,0,0,1,5.08-6.53,25.7,25.7,0,0,1,8-5.1,24.29,24.29,0,0,1,8.16-1.8,27.4,27.4,0,0,1,7.45.59,26.15,26.15,0,0,1,6.21,2.33,25.51,25.51,0,0,1,8.21,6.78A25,25,0,0,1,85.74,41a34,34,0,0,1,.4,6.46v.45c0,.68,0,.72.65.79a2.69,2.69,0,0,1,2.36,2.77c0,2,0,4.06,0,6.08A2.69,2.69,0,0,1,87,60.3a6.28,6.28,0,0,1-1.3,0,.66.66,0,0,0-.75.45A3.54,3.54,0,0,1,82.36,63a11.26,11.26,0,0,1-1.93.07c-.26,0-.35.1-.44.33a23.1,23.1,0,0,1-3.49,6.1c-.51.64-1.08,1.24-1.61,1.87M84,46A23.17,23.17,0,0,0,73.23,25.65a23.55,23.55,0,0,0-27,.68,22.91,22.91,0,0,0-9.81,19.59A3.29,3.29,0,0,1,38.34,45c.32-.08.8,0,.93-.13s0-.66.07-1a20.16,20.16,0,0,1,3.13-10,20.64,20.64,0,0,1,4.71-5.19,22.24,22.24,0,0,1,6.6-3.4,21.31,21.31,0,0,1,17.09,1.8,19.41,19.41,0,0,1,3.77,2.8,18.85,18.85,0,0,1,4,5.22,24.73,24.73,0,0,1,1.58,3.76,26.73,26.73,0,0,1,.78,3.68c.13.79.14,1.6.21,2.42A3.44,3.44,0,0,1,84,46Zm-44.41,8h0v-1.8c0-1.57,0-3.15,0-4.72,0-.14-.11-.4-.2-.41a1.89,1.89,0,0,0-2.38,1.62Q37,53.87,37,59c0,1.4.9,1.8,1.84,2,.67.16.78,0,.78-.61ZM80.75,61c.82,0,1.64,0,2.11-.71a2.84,2.84,0,0,0,.45-1.46c0-3.26,0-6.51,0-9.77a1.85,1.85,0,0,0-2-2c-.56,0-.6,0-.6.63q0,6.39,0,12.78Zm-45.7-6.54h0c0-1.13,0-2.25,0-3.38,0-.14-.07-.36-.16-.4a1.17,1.17,0,0,0-1.63,1q0,2.84,0,5.67a1,1,0,0,0,1.38,1,.5.5,0,0,0,.42-.58C35,56.64,35.05,55.54,35.05,54.45Zm50.34,3.84h.88a.79.79,0,0,0,.88-.86c0-1.87,0-3.75,0-5.62a1.06,1.06,0,0,0-1.06-1.16c-.23,0-.46,0-.7.05Zm-20,9.37a1.91,1.91,0,0,0,2-1.84,2,2,0,0,0-2-1.84,1.92,1.92,0,0,0-1.87,1.86A1.85,1.85,0,0,0,65.38,67.66Z"/>
      <path class="cls-1" d="M64.17,58a4.28,4.28,0,0,1-2.34,2.17,3.7,3.7,0,0,1-4-.63,3.27,3.27,0,0,1-.81-3c.23-1.4.54-2.79.82-4.18.33-1.66.66-3.32,1-5A1,1,0,0,1,60,46.54a.93.93,0,0,1,.81,1.21c-.39,2-.82,4.08-1.22,6.12-.22,1.12-.43,2.24-.6,3.36a1.1,1.1,0,0,0,1.15,1.25,2.47,2.47,0,0,0,2-1c.27-.32.47-.36.81-.13S63.73,57.8,64.17,58Z"/>
      <path class="cls-1" d="M47.65,35c0-.91,0-.87.94-.95,1.78-.16,3.57-.32,5.34-.56,2-.27,4-.61,5.94-1,.94-.16,1.86-.42,2.8-.62.77-.17,1,0,1.26.74a.85.85,0,0,1-.68,1.23c-1,.29-2.1.47-3.15.7a78.62,78.62,0,0,1-11.33,1.49C47.65,36.18,47.65,36.16,47.65,35Z"/>
      <path class="cls-1" d="M54.19,45.66c0,.91,0,.9-.89,1-1.44.24-2.89.49-4.33.75a2,2,0,0,0-.57.24c-.66.32-1.07.14-1.24-.57a2.82,2.82,0,0,1-.09-.57.81.81,0,0,1,.7-.91c1.63-.35,3.28-.67,4.92-1,.26,0,.53-.08.8-.12.53-.06.68.07.69.6C54.19,45.3,54.19,45.48,54.19,45.66Z"/>
      <path class="cls-1" d="M73.61,45.91,73,48a7.84,7.84,0,0,0-1-.29c-1.53-.32-3.07-.64-4.61-.93A1.2,1.2,0,0,1,66.41,46a1,1,0,0,1,.82-1.33,4,4,0,0,1,1.38.06c1.52.32,3,.69,4.54,1C73.28,45.79,73.4,45.84,73.61,45.91Z"/>
      <path class="cls-1" d="M50.91,50a1.53,1.53,0,0,1,1.6,1.61,1.64,1.64,0,0,1-1.62,1.68,1.61,1.61,0,0,1-1.48-1.71A1.46,1.46,0,0,1,50.91,50Z"/>
      <path class="cls-1" d="M69.57,49.82c.29.17.59.31.86.5a2,2,0,0,1,.34.41c.61.85.61,1-.11,1.81a2.5,2.5,0,0,1-.8.62,1.35,1.35,0,0,1-.84,0,1.92,1.92,0,0,1-.61-.5,1.59,1.59,0,0,1,.8-2.67c.1,0,.21,0,.31-.05Z"/>
    </g>
    <text class="cls-2" transform="translate(110.7 63.14)">SimpleTicket</text>
  </g>
</svg>
