<svg id="Layer_1" data-name="Layer 1" xmlns="http://www.w3.org/2000/svg" viewBox="0 0 400 100">
  <defs>
    <style>
      .cls-1 {
        fill: #0f3057;
      }
    </style>
  </defs>
  <g>
    <path class="cls-1" d="M69.59,73.4a19.56,19.56,0,0,1-12.32,4.22,19.8,19.8,0,0,1-8.69-1.93,23,23,0,0,1-7.51-6c-.33-.39-.65-.79-1-1.18a1.71,1.71,0,0,1-.31-.91c0-.75,0-1.5,0-2.25a2.16,2.16,0,0,1,.16-.59h.14c.35.53.71,1.06,1.05,1.59a20.45,20.45,0,0,0,9.35,8,24.5,24.5,0,0,0,3.23.93,14,14,0,0,0,3.87.4A18.34,18.34,0,0,0,62,75a15.78,15.78,0,0,0,3.7-1.47,19.8,19.8,0,0,0,5.14-4,18.53,18.53,0,0,0,2.79-3.79c.19-.36.36-.74.58-1.21-.94.37-1.76.68-2.57,1a20.57,20.57,0,0,1-5,1.28.52.52,0,0,0-.52.42,4,4,0,0,1-7.26.27s0-.05,0-.08c0-.75-.53-.7-1.06-.69-1.26,0-2.52,0-3.78,0-.73,0-1-.26-1-.93s.32-1.13,1-1.14c1.37,0,2.73,0,4.1,0a.75.75,0,0,0,.83-.54,3.86,3.86,0,0,1,4.8-2,3.79,3.79,0,0,1,2.34,2.12.7.7,0,0,0,.86.49,23,23,0,0,0,4.81-1.43,22.6,22.6,0,0,0,3.68-1.76.68.68,0,0,0,.38-.67q0-7,0-14c0-.5,0-1,.45-1.34.08-.05.09-.25.09-.37A19.08,19.08,0,0,0,74.46,37c-.53-1-1.19-2-1.8-3.07-.67.37-1.25.67-1.81,1a35.82,35.82,0,0,1-6.33,3c-1.7.64-3.47,1.12-5.23,1.62a60,60,0,0,1-8.8,1.73,62.54,62.54,0,0,1-8.43.4.57.57,0,0,1-.66-.57v0c-.14-1.23,0-1.36,1.22-1.39,2.1-.07,4.22-.09,6.32-.29a63.45,63.45,0,0,0,10.92-2.11A49.43,49.43,0,0,0,68.4,34c.85-.42,1.66-.94,2.49-1.43a2.39,2.39,0,0,0,.36-.28c-.63-.56-1.2-1.12-1.82-1.64a17.64,17.64,0,0,0-7-3.59c-1.12-.3-2.3-.36-3.44-.59a14.75,14.75,0,0,0-5.73.36,17.54,17.54,0,0,0-7.54,3.41,16.94,16.94,0,0,0-3.77,3.88,20.39,20.39,0,0,0-2.15,3.77,17.87,17.87,0,0,0-1.39,6.65,7.32,7.32,0,0,0,0,.81,2.93,2.93,0,0,0,.18.52,1.49,1.49,0,0,1,.17.53c0,5.41,0,10.81,0,16.22,0,.13,0,.26,0,.38-1.18,0-2.34.07-3.48,0a3.59,3.59,0,0,1-2.89-2.3c-.16-.33-.32-.36-.64-.36A6.1,6.1,0,0,1,30,60.12a2.2,2.2,0,0,1-1.56-2c-.07-.69-.08-1.38-.09-2.07,0-1.47,0-2.94,0-4.41A2.67,2.67,0,0,1,29.67,49a2.6,2.6,0,0,1,1.07-.23c.37,0,.48-.12.49-.49.05-1.65.08-3.3.23-4.94a25,25,0,0,1,3-10.13,27.26,27.26,0,0,1,5.08-6.53,25.7,25.7,0,0,1,8-5.1,24.29,24.29,0,0,1,8.16-1.8,27.51,27.51,0,0,1,7.46.59,26.24,26.24,0,0,1,6.2,2.33,25.51,25.51,0,0,1,8.21,6.78A25,25,0,0,1,82.81,41a34,34,0,0,1,.4,6.46v.45c0,.68,0,.72.65.79a2.69,2.69,0,0,1,2.36,2.77c0,2,0,4.06,0,6.08A2.68,2.68,0,0,1,84.1,60.3a6.28,6.28,0,0,1-1.3,0,.66.66,0,0,0-.75.45A3.54,3.54,0,0,1,79.43,63,11.26,11.26,0,0,1,77.5,63c-.25,0-.35.1-.44.33a23.1,23.1,0,0,1-3.49,6.1c-.51.64-1.08,1.24-1.61,1.87M81.11,46A23.17,23.17,0,0,0,70.3,25.65a23.55,23.55,0,0,0-27,.68,22.91,22.91,0,0,0-9.81,19.59A3.29,3.29,0,0,1,35.41,45c.32-.08.8,0,.93-.13s0-.66.07-1a20.16,20.16,0,0,1,3.13-10,20.66,20.66,0,0,1,4.72-5.19,22.06,22.06,0,0,1,6.59-3.4,21.31,21.31,0,0,1,17.09,1.8,19.41,19.41,0,0,1,3.77,2.8,19.07,19.07,0,0,1,4.06,5.22,25.74,25.74,0,0,1,1.57,3.76,26.73,26.73,0,0,1,.78,3.68c.13.79.15,1.6.21,2.42A3.44,3.44,0,0,1,81.11,46Zm-44.41,8h0v-1.8c0-1.57,0-3.15,0-4.72,0-.14-.11-.4-.2-.41a1.89,1.89,0,0,0-2.38,1.62q0,5.13,0,10.26c0,1.4.9,1.8,1.84,2,.67.16.78,0,.78-.61ZM77.82,61c.83,0,1.64,0,2.11-.71a2.84,2.84,0,0,0,.45-1.46c0-3.26,0-6.51,0-9.77a1.86,1.86,0,0,0-2-2c-.56,0-.6,0-.6.63q0,6.39,0,12.78Zm-45.7-6.54h0c0-1.13,0-2.25,0-3.38,0-.14-.07-.36-.16-.4a1.16,1.16,0,0,0-1.62,1c0,1.89,0,3.78,0,5.67a1,1,0,0,0,1.38,1,.5.5,0,0,0,.42-.58C32.1,56.64,32.12,55.54,32.12,54.45Zm50.34,3.84h.88a.79.79,0,0,0,.88-.85c0-1.88,0-3.75,0-5.63a1.06,1.06,0,0,0-1-1.16c-.24,0-.47,0-.71.05Zm-20,9.37a1.91,1.91,0,0,0,2-1.84,2,2,0,0,0-2-1.84,1.91,1.91,0,0,0-1.86,1.86A1.83,1.83,0,0,0,62.45,67.66Z"/>
    <path class="cls-1" d="M61.24,58a4.28,4.28,0,0,1-2.34,2.17,3.7,3.7,0,0,1-4-.63,3.27,3.27,0,0,1-.8-3c.23-1.4.53-2.79.81-4.18.33-1.66.66-3.32,1-5a1,1,0,0,1,1.18-.87.93.93,0,0,1,.81,1.21c-.39,2-.82,4.08-1.22,6.12-.22,1.12-.43,2.24-.6,3.36a1.1,1.1,0,0,0,1.15,1.25,2.46,2.46,0,0,0,2-1c.27-.32.47-.36.81-.13S60.81,57.8,61.24,58Z"/>
    <path class="cls-1" d="M44.72,35c0-.91,0-.87.94-.95,1.78-.16,3.57-.32,5.34-.56,2-.27,4-.61,5.94-1,.94-.16,1.87-.42,2.8-.62.77-.17,1,0,1.26.74a.85.85,0,0,1-.68,1.23c-1,.29-2.1.47-3.15.7a78.62,78.62,0,0,1-11.33,1.49C44.72,36.18,44.72,36.16,44.72,35Z"/>
    <path class="cls-1" d="M51.26,45.66c0,.92,0,.9-.89,1L46,47.45a2,2,0,0,0-.57.24c-.65.32-1.07.14-1.24-.57a3.75,3.75,0,0,1-.09-.57.81.81,0,0,1,.7-.91c1.64-.35,3.28-.67,4.92-1,.26,0,.53-.08.8-.12.53-.06.68.07.7.6Z"/>
    <path class="cls-1" d="M70.68,45.91l-.57,2a7.33,7.33,0,0,0-1-.29c-1.53-.32-3.07-.64-4.61-.93A1.21,1.21,0,0,1,63.48,46a1,1,0,0,1,.82-1.33,4,4,0,0,1,1.38.06c1.52.32,3,.69,4.54,1A4.71,4.71,0,0,1,70.68,45.91Z"/>
    <path class="cls-1" d="M48,50a1.52,1.52,0,0,1,1.6,1.6A1.64,1.64,0,0,1,48,53.24a1.61,1.61,0,0,1-1.48-1.71A1.45,1.45,0,0,1,48,50Z"/>
    <path class="cls-1" d="M66.64,49.82c.29.17.59.31.86.5a2,2,0,0,1,.34.41c.61.85.61,1-.1,1.81a2.54,2.54,0,0,1-.81.62,1.28,1.28,0,0,1-.84,0,1.92,1.92,0,0,1-.61-.5,1.59,1.59,0,0,1,.8-2.67c.1,0,.21,0,.31-.05Z"/>
  </g>
  <g>
    <path class="cls-1" d="M126,38.11a5.31,5.31,0,0,0-2.4-2.13,7.76,7.76,0,0,0-3.14-.66,9.37,9.37,0,0,0-2.36.3,7,7,0,0,0-2.08.9,4.43,4.43,0,0,0-1.48,1.59,4.56,4.56,0,0,0-.56,2.32,4.92,4.92,0,0,0,.32,1.82,3.76,3.76,0,0,0,1,1.44,7.84,7.84,0,0,0,2,1.2,26.71,26.71,0,0,0,3,1.12c1.17.37,2.31.77,3.41,1.2a11.61,11.61,0,0,1,2.92,1.63,7.28,7.28,0,0,1,2,2.47,9.32,9.32,0,0,1-.15,7.66,8.33,8.33,0,0,1-2.39,2.77,10.28,10.28,0,0,1-3.41,1.64,15.17,15.17,0,0,1-4,.53,15.84,15.84,0,0,1-2.66-.23,13.68,13.68,0,0,1-2.56-.73,10.42,10.42,0,0,1-2.3-1.29,7.66,7.66,0,0,1-1.84-2l3.09-2.53a6.29,6.29,0,0,0,2.75,2.53,8.4,8.4,0,0,0,6.07.52,7.22,7.22,0,0,0,2.13-1A5.4,5.4,0,0,0,125,57.56a4.31,4.31,0,0,0,.6-2.28,4.82,4.82,0,0,0-.47-2.3,4.21,4.21,0,0,0-1.46-1.52,11.15,11.15,0,0,0-2.49-1.16l-3.52-1.2a21.8,21.8,0,0,1-3-1.18,9.42,9.42,0,0,1-2.39-1.63A7.15,7.15,0,0,1,110.67,44a8.3,8.3,0,0,1-.58-3.24,7.8,7.8,0,0,1,3.18-6.55,10.49,10.49,0,0,1,3.31-1.65,13,13,0,0,1,3.86-.56,13.28,13.28,0,0,1,4.7.79,9.21,9.21,0,0,1,3.8,2.77Z"/>
    <path class="cls-1" d="M134.35,35.19a2.4,2.4,0,0,1,.71-1.72,2.44,2.44,0,0,1,3.48,0,2.42,2.42,0,0,1-1.74,4.17,2.36,2.36,0,0,1-2.45-2.45Zm.77,7.86h3.35V63.14h-3.35Z"/>
    <path class="cls-1" d="M145.13,47.81c0-.92,0-1.77-.09-2.58S145,43.7,145,43.05h3.17c0,.54,0,1.08.05,1.63s0,1.1,0,1.67h.09a5.65,5.65,0,0,1,1-1.42,7.47,7.47,0,0,1,1.48-1.22A8,8,0,0,1,155,42.53a7.93,7.93,0,0,1,2.73.41,6.59,6.59,0,0,1,1.83,1,4.82,4.82,0,0,1,1.13,1.24,13.19,13.19,0,0,1,.67,1.18,9.15,9.15,0,0,1,2.58-2.81,6.51,6.51,0,0,1,3.77-1,9.75,9.75,0,0,1,3.61.58,5.76,5.76,0,0,1,2.36,1.67A6.66,6.66,0,0,1,175,47.45a14.45,14.45,0,0,1,.39,3.49v12.2H172v-12a9.06,9.06,0,0,0-.22-2,4.59,4.59,0,0,0-.77-1.76,4,4,0,0,0-1.5-1.25,5.44,5.44,0,0,0-2.41-.47,4.79,4.79,0,0,0-2,.43,5.15,5.15,0,0,0-1.65,1.2,5.89,5.89,0,0,0-1.12,1.87,7,7,0,0,0-.4,2.43V63.14h-3.35V51.76a9.19,9.19,0,0,0-.9-4.74,3.27,3.27,0,0,0-3-1.4,6.58,6.58,0,0,0-2.81.56A4.91,4.91,0,0,0,150,47.77a7.18,7.18,0,0,0-1.12,2.45,12.69,12.69,0,0,0-.36,3.13v9.79h-3.35Z"/>
    <path class="cls-1" d="M181.54,43.05h3.35V46H185a10,10,0,0,1,3.2-2.53,9,9,0,0,1,4-.9,11.33,11.33,0,0,1,4.31.79,9.63,9.63,0,0,1,3.33,2.22A10.37,10.37,0,0,1,202,48.88a11.89,11.89,0,0,1,0,8.42,10.53,10.53,0,0,1-2.13,3.35,9.7,9.7,0,0,1-3.2,2.21,9.88,9.88,0,0,1-4,.79A9.26,9.26,0,0,1,188,62.47a7.65,7.65,0,0,1-3-2.89h-.08V72.93h-3.35Zm3.35,10a8.48,8.48,0,0,0,.49,2.94,6.85,6.85,0,0,0,1.44,2.36A6.67,6.67,0,0,0,189.07,60,7.77,7.77,0,0,0,195,60a6.67,6.67,0,0,0,2.25-1.59A6.85,6.85,0,0,0,198.65,56a9.06,9.06,0,0,0,0-5.88,6.85,6.85,0,0,0-1.44-2.36A7,7,0,0,0,195,46.2a7.77,7.77,0,0,0-5.89,0,7,7,0,0,0-2.25,1.59,6.85,6.85,0,0,0-1.44,2.36A8.48,8.48,0,0,0,184.89,53.09Z"/>
    <path class="cls-1" d="M208.24,30.68h3.35V63.14h-3.35Z"/>
    <path class="cls-1" d="M236.2,59.49a10.17,10.17,0,0,1-3.95,3.24,12.5,12.5,0,0,1-5,.92,10.38,10.38,0,0,1-4.26-.83,9.47,9.47,0,0,1-3.19-2.26,9.69,9.69,0,0,1-2-3.35,12.27,12.27,0,0,1,.06-8.39A9.94,9.94,0,0,1,220,45.47a9.65,9.65,0,0,1,3.26-2.17,10.87,10.87,0,0,1,4.12-.77,10.33,10.33,0,0,1,3.87.71,8.33,8.33,0,0,1,3,2.06,9.19,9.19,0,0,1,2,3.3,13.37,13.37,0,0,1,.69,4.45v1.07H220.7a6.86,6.86,0,0,0,.62,2.47,7.11,7.11,0,0,0,1.39,2.06,6.65,6.65,0,0,0,2,1.4,6.23,6.23,0,0,0,2.54.51,8,8,0,0,0,3.69-.77,8.35,8.35,0,0,0,2.7-2.28Zm-2.88-8.2a5.77,5.77,0,0,0-1.68-4.12,6,6,0,0,0-4.37-1.55,6.19,6.19,0,0,0-6.57,5.67Z"/>
    <path class="cls-1" d="M263.12,36.09H253.07V63.14h-3.61v-27h-10V32.74h23.7Z"/>
    <path class="cls-1" d="M266.29,35.19a2.4,2.4,0,0,1,.71-1.72,2.44,2.44,0,0,1,3.48,0,2.42,2.42,0,0,1-1.74,4.17,2.36,2.36,0,0,1-2.45-2.45Zm.78,7.86h3.34V63.14h-3.34Z"/>
    <path class="cls-1" d="M291.37,48.07a6.87,6.87,0,0,0-2.32-1.87,6.39,6.39,0,0,0-2.75-.58,7.08,7.08,0,0,0-3,.58,5.73,5.73,0,0,0-2.13,1.61A7.06,7.06,0,0,0,280,50.19a9.46,9.46,0,0,0-.43,2.9A8.37,8.37,0,0,0,280,56a7.76,7.76,0,0,0,1.37,2.38A6.14,6.14,0,0,0,283.51,60a6.48,6.48,0,0,0,2.79.58,5.94,5.94,0,0,0,5.11-2.49l2.49,2.36a8.66,8.66,0,0,1-3.43,2.45,11.89,11.89,0,0,1-8.42,0,9,9,0,0,1-3.28-2.19,9.89,9.89,0,0,1-2.11-3.35,12.3,12.3,0,0,1,0-8.46,9.84,9.84,0,0,1,2.13-3.34,9.62,9.62,0,0,1,3.28-2.22,11,11,0,0,1,4.23-.79,11.72,11.72,0,0,1,4.23.77,9.29,9.29,0,0,1,3.5,2.41Z"/>
    <path class="cls-1" d="M297.77,30.68h3.34V51.89l9.15-8.84H315l-9.71,9.14,10.69,11h-4.94l-10-10.56V63.14h-3.34Z"/>
    <path class="cls-1" d="M337.18,59.49a10.1,10.1,0,0,1-3.95,3.24,12.43,12.43,0,0,1-5,.92,10.33,10.33,0,0,1-4.25-.83,9.51,9.51,0,0,1-3.2-2.26,9.84,9.84,0,0,1-2-3.35,11.89,11.89,0,0,1-.71-4.12,11.42,11.42,0,0,1,.78-4.27A9.92,9.92,0,0,1,321,45.47a9.79,9.79,0,0,1,3.27-2.17,10.87,10.87,0,0,1,4.12-.77,10.28,10.28,0,0,1,3.86.71,8.37,8.37,0,0,1,3,2.06,9.32,9.32,0,0,1,2,3.3,13.37,13.37,0,0,1,.69,4.45v1.07H321.68a7.08,7.08,0,0,0,.62,2.47,7,7,0,0,0,1.4,2.06,6.41,6.41,0,0,0,2,1.4,6.18,6.18,0,0,0,2.53.51,7.93,7.93,0,0,0,3.69-.77,8.38,8.38,0,0,0,2.71-2.28Zm-2.88-8.2a5.73,5.73,0,0,0-1.67-4.12,6,6,0,0,0-4.38-1.55,6.19,6.19,0,0,0-6.57,5.67Z"/>
    <path class="cls-1" d="M354.1,45.88h-5.93v10c0,.65,0,1.26,0,1.82a3.78,3.78,0,0,0,.35,1.46,2.27,2.27,0,0,0,.9,1,3.36,3.36,0,0,0,1.72.36,6.86,6.86,0,0,0,3-.68l.13,3a7.46,7.46,0,0,1-1.91.56,11.83,11.83,0,0,1-2,.17,7.21,7.21,0,0,1-2.88-.47,3.9,3.9,0,0,1-1.67-1.33,4.84,4.84,0,0,1-.79-2.12,18.7,18.7,0,0,1-.2-2.82v-11h-4.38V43.05h4.38V37.33h3.35v5.72h5.93Z"/>
  </g>
</svg>
